<?xml version="1.0" encoding="utf-8"?>
<!-- Generator: Adobe Illustrator 23.0.0, SVG Export Plug-In . SVG Version: 6.00 Build 0)  -->
<svg version="1.1" id="Layer_1" xmlns="http://www.w3.org/2000/svg" xmlns:xlink="http://www.w3.org/1999/xlink" x="0px" y="0px"
	 viewBox="0 0 560 420" style="enable-background:new 0 0 560 420;" xml:space="preserve">
<style type="text/css">
	
		.st0{fill:none;stroke:#1A1A1A;stroke-width:0.6667;stroke-linejoin:bevel;stroke-miterlimit:1;stroke-opacity:0.251;stroke-dasharray:1,3;}
	.st1{fill:none;stroke:#262626;stroke-width:0.6667;stroke-linejoin:round;stroke-miterlimit:10;stroke-opacity:0.302;}
	.st2{fill:none;stroke:#262626;stroke-width:0.6667;stroke-linejoin:round;stroke-miterlimit:10;}
	.st3{fill:#0072BD;fill-opacity:0.702;}
	.st4{fill:#D95319;fill-opacity:0.702;}
	.st5{fill:#EDB120;fill-opacity:0.702;}
	.st6{font-family:'MyriadPro-Regular';}
	.st7{font-size:13.3333px;}
	.st8{fill:none;stroke:#262626;stroke-width:0.6667;stroke-linecap:square;stroke-linejoin:round;stroke-miterlimit:10;}
	.st9{fill:#262626;}
	.st10{font-size:14.6667px;}
	.st11{fill:#FFFFFF;}
	.st12{font-size:12px;}
	.st13{fill:none;stroke:#262626;stroke-width:0.6667;stroke-miterlimit:10;}
</style>
<g>
	<line class="st0" x1="87.5" y1="374" x2="87.5" y2="31"/>
	<line class="st0" x1="101.9" y1="374" x2="101.9" y2="31"/>
	<line class="st0" x1="116.4" y1="374" x2="116.4" y2="31"/>
	<line class="st0" x1="130.9" y1="374" x2="130.9" y2="31"/>
	<line class="st0" x1="159.8" y1="374" x2="159.8" y2="31"/>
	<line class="st0" x1="174.3" y1="374" x2="174.3" y2="31"/>
	<line class="st0" x1="188.7" y1="374" x2="188.7" y2="31"/>
	<line class="st0" x1="203.2" y1="374" x2="203.2" y2="31"/>
	<line class="st0" x1="232.1" y1="374" x2="232.1" y2="31"/>
	<line class="st0" x1="246.6" y1="374" x2="246.6" y2="31"/>
	<line class="st0" x1="261.1" y1="374" x2="261.1" y2="31"/>
	<line class="st0" x1="275.5" y1="374" x2="275.5" y2="31"/>
	<line class="st0" x1="304.5" y1="374" x2="304.5" y2="31"/>
	<line class="st0" x1="318.9" y1="374" x2="318.9" y2="31"/>
	<line class="st0" x1="333.4" y1="374" x2="333.4" y2="31"/>
	<line class="st0" x1="347.9" y1="374" x2="347.9" y2="31"/>
	<line class="st0" x1="376.8" y1="374" x2="376.8" y2="31"/>
	<line class="st0" x1="391.3" y1="374" x2="391.3" y2="31"/>
	<line class="st0" x1="405.7" y1="374" x2="405.7" y2="31"/>
	<line class="st0" x1="420.2" y1="374" x2="420.2" y2="31"/>
	<line class="st0" x1="449.1" y1="374" x2="449.1" y2="31"/>
	<line class="st0" x1="463.6" y1="374" x2="463.6" y2="31"/>
	<line class="st0" x1="478.1" y1="374" x2="478.1" y2="31"/>
	<line class="st0" x1="492.5" y1="374" x2="492.5" y2="31"/>
</g>
<g>
	<line class="st1" x1="73" y1="374" x2="73" y2="31"/>
	<line class="st1" x1="145.3" y1="374" x2="145.3" y2="31"/>
	<line class="st1" x1="217.7" y1="374" x2="217.7" y2="31"/>
	<line class="st1" x1="290" y1="374" x2="290" y2="31"/>
	<line class="st1" x1="362.3" y1="374" x2="362.3" y2="31"/>
	<line class="st1" x1="434.7" y1="374" x2="434.7" y2="31"/>
	<line class="st1" x1="507" y1="374" x2="507" y2="31"/>
	<line class="st2" x1="73" y1="374" x2="73" y2="31"/>
</g>
<g>
	<path class="st3" d="M73,367.2h402v-6.8H73V367.2z M73,329h353.4v-6.8H73V329z M73,290.8h224.9V284H73V290.8z M73,252.6h210.8v-6.8
		H73V252.6z M73,214.4h311.9v-6.8H73V214.4z M73,176.2h300.3v-6.8H73V176.2z M73,138h201.2v-6.8H73V138z M73,99.8h315.7V93H73V99.8z
		 M73,61.6h280.1v-6.8H73V61.6z"/>
	<path class="st4" d="M73,358.7h357.7v-6.8H73V358.7z M73,320.5h331.1v-6.8H73V320.5z M73,282.3h209.1v-6.8H73V282.3z M73,244.1
		h188.9v-6.8H73V244.1z M73,205.9h326.9v-6.8H73V205.9z M73,167.7h212.9v-6.8H73V167.7z M73,129.5h178.7v-6.8H73V129.5z M73,91.3
		h290.1v-6.8H73V91.3z M73,53.1h267.9v-6.8H73V53.1z"/>
	<path class="st5" d="M73,350.2h294.3v-6.8H73V350.2z M73,312h320.1v-6.8H73V312z M73,273.8h186.5V267H73V273.8z M73,235.6h163v-6.8
		H73V235.6z M73,197.4h280.1v-6.8H73V197.4z M73,159.2h208v-6.8H73V159.2z M73,121h158.3v-6.8H73V121z M73,82.8h268.5V76H73V82.8z
		 M73,44.6h253.5v-6.8H73V44.6z"/>
</g>
<g transform="translate(69.3833,355.3218)">
	<text transform="matrix(1 0 0 1 -8 5.5)" class="st6 st7">1</text>
</g>
<g transform="translate(69.3833,317.1163)">
	<text transform="matrix(1 0 0 1 -8 5.5)" class="st6 st7">2</text>
</g>
<g transform="translate(69.3833,278.9109)">
	<text transform="matrix(1 0 0 1 -8 5.5)" class="st6 st7">3</text>
</g>
<g transform="translate(69.3833,240.7054)">
	<text transform="matrix(1 0 0 1 -8 5.5)" class="st6 st7">4</text>
</g>
<g transform="translate(69.3833,202.5)">
	<text transform="matrix(1 0 0 1 -8 5.5)" class="st6 st7">5</text>
</g>
<g transform="translate(69.3833,164.2946)">
	<text transform="matrix(1 0 0 1 -8 5.5)" class="st6 st7">6</text>
</g>
<g transform="translate(69.3833,126.0891)">
	<text transform="matrix(1 0 0 1 -8 5.5)" class="st6 st7">7</text>
</g>
<g transform="translate(69.3833,87.8837)">
	<text transform="matrix(1 0 0 1 -8 5.5)" class="st6 st7">8</text>
</g>
<g transform="translate(69.3833,49.6782)">
	<text transform="matrix(1 0 0 1 -8 5.5)" class="st6 st7">9</text>
</g>
<g>
	<line class="st8" x1="73" y1="374" x2="507" y2="374"/>
	<line class="st8" x1="73" y1="31" x2="507" y2="31"/>
	<line class="st8" x1="73" y1="374" x2="73" y2="369.7"/>
	<line class="st8" x1="145.3" y1="374" x2="145.3" y2="369.7"/>
	<line class="st8" x1="217.7" y1="374" x2="217.7" y2="369.7"/>
	<line class="st8" x1="290" y1="374" x2="290" y2="369.7"/>
	<line class="st8" x1="362.3" y1="374" x2="362.3" y2="369.7"/>
	<line class="st8" x1="434.7" y1="374" x2="434.7" y2="369.7"/>
	<line class="st8" x1="507" y1="374" x2="507" y2="369.7"/>
	<line class="st8" x1="73" y1="31" x2="73" y2="35.3"/>
	<line class="st8" x1="145.3" y1="31" x2="145.3" y2="35.3"/>
	<line class="st8" x1="217.7" y1="31" x2="217.7" y2="35.3"/>
	<line class="st8" x1="290" y1="31" x2="290" y2="35.3"/>
	<line class="st8" x1="362.3" y1="31" x2="362.3" y2="35.3"/>
	<line class="st8" x1="434.7" y1="31" x2="434.7" y2="35.3"/>
	<line class="st8" x1="507" y1="31" x2="507" y2="35.3"/>
</g>
<g transform="translate(73,379.3333)">
	<text transform="matrix(1 0 0 1 -4 14)" class="st9 st6 st7">0</text>
</g>
<g transform="translate(145.3333,379.3333)">
	<text transform="matrix(1 0 0 1 -7.5 14)" class="st9 st6 st7">10</text>
</g>
<g transform="translate(217.6667,379.3333)">
	<text transform="matrix(1 0 0 1 -7.5 14)" class="st9 st6 st7">20</text>
</g>
<g transform="translate(290,379.3333)">
	<text transform="matrix(1 0 0 1 -7.5 14)" class="st9 st6 st7">30</text>
</g>
<g transform="translate(362.3333,379.3333)">
	<text transform="matrix(1 0 0 1 -7.5 14)" class="st9 st6 st7">40</text>
</g>
<g transform="translate(434.6667,379.3333)">
	<text transform="matrix(1 0 0 1 -7.5 14)" class="st9 st6 st7">50</text>
</g>
<g transform="translate(507,379.3333)">
	<text transform="matrix(1 0 0 1 -7.5 14)" class="st9 st6 st7">60</text>
</g>
<g transform="translate(290.0002,397.6667)">
	<text transform="matrix(1 0 0 1 -120 15)" class="st9 st6 st10">Top-1 Beam Prediction Accuracy [%]</text>
</g>
<g>
	<line class="st8" x1="73" y1="374" x2="73" y2="31"/>
	<line class="st8" x1="507" y1="374" x2="507" y2="31"/>
</g>
<g transform="translate(67.6667,202.4998) rotate(-90)">
	<text transform="matrix(1 0 0 1 -32.9996 -23)" class="st9 st6 st10">Scenarios</text>
</g>
<g transform="translate(67.6667,202.4998) rotate(-90)">
</g>
<g>
	<g>
		<path class="st11" d="M531.1,79.6v-53h-164v53H531.1z"/>
	</g>
	<g transform="translate(379,52)">
		<text transform="matrix(1 0 0 1 35.1333 -10.4257)" class="st6 st12">Lookup Table</text>
	</g>
	<g>
		<path class="st5" d="M411.1,42.6v-12h-40v12H411.1z"/>
	</g>
	<g transform="translate(379,68.5)">
		<text transform="matrix(1 0 0 1 35.1333 -10.4257)" class="st6 st12">K-Nearest Neighbors</text>
	</g>
	<g>
		<path class="st4" d="M411.1,59.1v-12h-40v12H411.1z"/>
	</g>
	<g transform="translate(379,85)">
		<text transform="matrix(1 0 0 1 35.1333 -10.4257)" class="st6 st12">Neural Network</text>
	</g>
	<g>
		<path class="st3" d="M411.1,75.6v-12h-40v12H411.1z"/>
	</g>
	<g>
		<path class="st13" d="M367.1,79.6v-53h164v53H367.1z"/>
	</g>
</g>
</svg>
